# xmcd CD database file
#
# Track frame offsets:
#	150
#	22087
#	50812
#	64637
#	91947
#	120485
#	145400
#	163715
#	179345
#	205495
#	229842
#	247517
#
# Disc length: 3551 seconds
#
# Revision: 0
# Processed by: cddbd v1.5PL3 Copyright (c) Steve Scherf et al.
# Submitted via: CDex 1.51
#
DISCID=a40ddd0c
DTITLE=氷室京介 - LOVER'S DAY ?
DYEAR=1999
DGENRE=Jazz
TTITLE0=KISS ME
TTITLE1=WALTZ
TTITLE2=魂を抱いてくれ
TTITLE3=Memories Of Blue
TTITLE4=RAINY BLUE
TTITLE5=TRUE BELIEVER
TTITLE6=Urban Dance
TTITLE7=Good Luck My Love
TTITLE8=CLOUDY HEART
TTITLE9=YOU'RE THE RIGHT
TTITLE10=FOREVER RAIN
TTITLE11=LOVER'S DAY
EXTD=YEAR: 1999
EXTT0=
EXTT1=
EXTT2=
EXTT3=
EXTT4=
EXTT5=
EXTT6=
EXTT7=
EXTT8=
EXTT9=
EXTT10=
EXTT11=
PLAYORDER=
